<svg width="54" height="70" viewBox="0 0 54 70" fill="none" xmlns="http://www.w3.org/2000/svg">
<path d="M49.8682 23.5784C53.8334 21.9784 54.1582 16.49 50.4094 14.4335L25.2803 0.648117C23.0935 -0.551512 20.359 0.0179671 18.8329 1.99082L1.23844 24.7358C-0.632988 27.1551 0.048251 30.6682 2.6883 32.2126L6.23211 34.2858C8.26902 35.4774 9.21419 37.9169 8.51181 40.1698L1.53222 62.5568C-0.0063004 67.4916 5.96232 71.2937 9.7843 67.8135L36.842 43.1754C38.9408 41.2642 38.5838 37.8657 36.1337 36.4323C33.1166 34.6674 33.4423 30.2064 36.6838 28.8985L49.8682 23.5784Z" fill="url(#paint0_linear_2304_4832)"/>
<defs>
<linearGradient id="paint0_linear_2304_4832" x1="53.9512" y1="16.164" x2="16.5298" y2="-1.70836" gradientUnits="userSpaceOnUse">
<stop stop-color="#FF6432"/>
<stop offset="1" stop-color="#FFA228"/>
</linearGradient>
</defs>
</svg>
