<svg width="105" height="37" viewBox="0 0 105 37" fill="none" xmlns="http://www.w3.org/2000/svg">
<path d="M104.126 28.6808C104.588 28.219 104.588 27.4704 104.126 27.0086L96.6011 19.4836C96.1393 19.0218 95.3906 19.0218 94.9289 19.4836C94.4671 19.9454 94.4671 20.6941 94.9289 21.1558L101.618 27.8447L94.9288 34.5336C94.4671 34.9953 94.4671 35.744 94.9288 36.2058C95.3906 36.6676 96.1393 36.6676 96.6011 36.2058L104.126 28.6808ZM50.847 14.0835C50.4646 13.5541 49.7255 13.4349 49.1961 13.8173C48.6667 14.1996 48.5475 14.9387 48.9298 15.4682L49.8884 14.7758L50.847 14.0835ZM75.4479 27.8447L75.4479 26.6623L75.4479 27.8447ZM48.9298 15.4682C49.3122 15.9976 50.0513 16.1168 50.5807 15.7344C51.1101 15.3521 51.2293 14.6129 50.847 14.0835L49.8884 14.7758L48.9298 15.4682ZM4.60882 7.52264C5.23347 7.3322 5.58547 6.67143 5.39503 6.04677C5.20458 5.42212 4.54381 5.07012 3.91916 5.26056L4.26399 6.3916L4.60882 7.52264ZM11.5256 2.94153C10.9009 3.13198 10.5489 3.79275 10.7394 4.4174C10.9298 5.04206 11.5906 5.39406 12.2152 5.20361L11.8704 4.07257L11.5256 2.94153ZM19.7167 3.2406C20.3621 3.14111 20.8047 2.53725 20.7052 1.89183C20.6057 1.24641 20.0019 0.803841 19.3565 0.903326L19.5366 2.07196L19.7167 3.2406ZM30.2299 1.06051C29.5876 0.942541 28.9713 1.36759 28.8533 2.00989C28.7353 2.65219 29.1604 3.26851 29.8027 3.38648L30.0163 2.22349L30.2299 1.06051ZM38.0189 6.15211C38.6018 6.44655 39.313 6.21271 39.6075 5.62981C39.9019 5.04691 39.6681 4.33569 39.0852 4.04125L38.552 5.09668L38.0189 6.15211ZM47.8404 10.4912C47.3865 10.0217 46.6379 10.009 46.1684 10.4629C45.6989 10.9168 45.6862 11.6653 46.1401 12.1349L46.9903 11.313L47.8404 10.4912ZM51.1738 18.2432C51.6115 18.7278 52.3592 18.7659 52.8439 18.3282C53.3285 17.8905 53.3666 17.1427 52.9289 16.6581L52.0513 17.4506L51.1738 18.2432ZM58.7717 21.6696C58.226 21.3108 57.4928 21.4622 57.134 22.0078C56.7752 22.5535 56.9266 23.2867 57.4722 23.6455L58.122 22.6575L58.7717 21.6696ZM63.8172 26.8897C64.4276 27.122 65.1106 26.8154 65.3428 26.2051C65.5751 25.5947 65.2686 24.9117 64.6582 24.6795L64.2377 25.7846L63.8172 26.8897ZM72.1418 26.4819C71.4927 26.4108 70.9088 26.8794 70.8377 27.5286C70.7666 28.1778 71.2352 28.7616 71.8844 28.8327L72.0131 27.6573L72.1418 26.4819ZM81.8773 29.0271C82.5304 29.0271 83.0598 28.4977 83.0598 27.8447C83.0598 27.1917 82.5304 26.6623 81.8773 26.6623L81.8773 27.8447L81.8773 29.0271ZM96.8605 26.6623C96.2075 26.6623 95.6781 27.1917 95.6781 27.8447C95.6781 28.4977 96.2075 29.0271 96.8605 29.0271L96.8605 27.8447L96.8605 26.6623ZM1 7.38672L1.34483 8.51776L4.60882 7.52264L4.26399 6.3916L3.91916 5.26056L0.655171 6.25568L1 7.38672ZM11.8704 4.07257L12.2152 5.20361L15.4792 4.20849L15.1344 3.07746L14.7896 1.94642L11.5256 2.94153L11.8704 4.07257ZM15.1344 3.07746L15.4792 4.20849C16.8821 3.78078 18.2979 3.45929 19.7167 3.2406L19.5366 2.07196L19.3565 0.903326C17.8268 1.13911 16.3009 1.48564 14.7896 1.94642L15.1344 3.07746ZM30.0163 2.22349L29.8027 3.38648C32.6587 3.91105 35.427 4.84287 38.0189 6.15211L38.552 5.09668L39.0852 4.04125C36.2916 2.63015 33.3081 1.6259 30.2299 1.06051L30.0163 2.22349ZM46.9903 11.313L46.1401 12.1349C47.1379 13.167 48.0711 14.2792 48.9298 15.4682L49.8884 14.7758L50.847 14.0835C49.9219 12.8026 48.9161 11.6039 47.8404 10.4912L46.9903 11.313ZM49.8884 14.7758L48.9298 15.4682C49.631 16.439 50.3805 17.3648 51.1738 18.2432L52.0513 17.4506L52.9289 16.6581C52.193 15.8433 51.4976 14.9844 50.847 14.0835L49.8884 14.7758ZM58.122 22.6575L57.4722 23.6455C59.4627 24.9545 61.5906 26.0425 63.8172 26.8897L64.2377 25.7846L64.6582 24.6795C62.5925 23.8935 60.6183 22.884 58.7717 21.6696L58.122 22.6575ZM72.0131 27.6573L71.8844 28.8327C73.061 28.9616 74.2503 29.0271 75.4479 29.0271L75.4479 27.8447L75.4479 26.6623C74.3367 26.6623 73.2333 26.6014 72.1418 26.4819L72.0131 27.6573ZM75.4479 27.8447L75.4479 29.0271L81.8773 29.0271L81.8773 27.8447L81.8773 26.6623L75.4479 26.6623L75.4479 27.8447ZM96.8605 27.8447L96.8605 29.0271L103.29 29.0271L103.29 27.8447L103.29 26.6623L96.8605 26.6623L96.8605 27.8447Z" fill="#A3A3A3"/>
</svg>
