<svg width="148" height="147" viewBox="0 0 148 147" fill="none" xmlns="http://www.w3.org/2000/svg">
<path d="M146.803 142.459C147.438 142.224 147.762 141.518 147.526 140.883L143.689 130.535C143.454 129.9 142.748 129.576 142.113 129.811C141.478 130.047 141.154 130.752 141.39 131.387L144.8 140.586L135.602 143.997C134.967 144.232 134.643 144.938 134.878 145.573C135.114 146.208 135.819 146.532 136.454 146.296L146.803 142.459ZM74.6449 78.0902C74.9274 77.4747 74.6575 76.7467 74.042 76.4641C73.4264 76.1816 72.6984 76.4515 72.4159 77.0671L73.5304 77.5787L74.6449 78.0902ZM63.7169 43.1441L64.3943 42.1218L63.7169 43.1441ZM72.4159 77.0671C72.1333 77.6826 72.4032 78.4106 73.0188 78.6932C73.6343 78.9757 74.3623 78.7058 74.6449 78.0902L73.5304 77.5787L72.4159 77.0671ZM5.08708 5.7652C5.65166 6.1393 6.41261 5.9849 6.78672 5.42032C7.16083 4.85574 7.00642 4.09479 6.44184 3.72068L5.76446 4.74294L5.08708 5.7652ZM18.8602 11.9495C18.2956 11.5754 17.5347 11.7298 17.1606 12.2944C16.7865 12.859 16.9409 13.6199 17.5055 13.994L18.1828 12.9718L18.8602 11.9495ZM25.7844 19.4799C26.349 19.854 27.1099 19.6996 27.484 19.135C27.8581 18.5704 27.7037 17.8095 27.1391 17.4354L26.4618 18.4576L25.7844 19.4799ZM39.5575 25.6642C38.993 25.2901 38.232 25.4445 37.8579 26.0091C37.4838 26.5737 37.6382 27.3346 38.2028 27.7087L38.8802 26.6865L39.5575 25.6642ZM46.4817 33.1946C47.0463 33.5687 47.8072 33.4143 48.1813 32.8497C48.5554 32.2851 48.401 31.5242 47.8365 31.1501L47.1591 32.1723L46.4817 33.1946ZM60.2548 39.3789C59.6903 39.0048 58.9293 39.1592 58.5552 39.7238C58.1811 40.2884 58.3355 41.0493 58.9001 41.4234L59.5775 40.4012L60.2548 39.3789ZM65.991 46.4356C66.4975 46.8852 67.2726 46.8392 67.7223 46.3328C68.1719 45.8263 68.1259 45.0512 67.6194 44.6015L66.8052 45.5186L65.991 46.4356ZM74.7777 54.3882C74.5024 53.7694 73.7775 53.491 73.1588 53.7664C72.54 54.0418 72.2616 54.7667 72.537 55.3854L73.6574 54.8868L74.7777 54.3882ZM74.5722 62.5268C74.6644 63.1978 75.2831 63.667 75.954 63.5748C76.625 63.4827 77.0942 62.864 77.002 62.193L75.7871 62.3599L74.5722 62.5268ZM76.0783 74.2829C76.2716 73.6338 75.9021 72.9509 75.253 72.7576C74.6039 72.5643 73.921 72.9338 73.7277 73.5829L74.903 73.9329L76.0783 74.2829ZM70.8572 81.3015C70.6737 81.9534 71.0534 82.6307 71.7053 82.8142C72.3572 82.9978 73.0345 82.6181 73.2181 81.9662L72.0377 81.6338L70.8572 81.3015ZM72.7583 94.2367C72.6245 93.5728 71.9779 93.143 71.3139 93.2767C70.65 93.4105 70.2202 94.0571 70.354 94.7211L71.5561 94.4789L72.7583 94.2367ZM73.4815 103.156C73.8129 103.747 74.5604 103.957 75.1511 103.626C75.7417 103.294 75.9519 102.547 75.6204 101.956L74.551 102.556L73.4815 103.156ZM83.9686 110.961C83.4044 110.586 82.6433 110.74 82.2686 111.304C81.8939 111.868 82.0476 112.629 82.6118 113.004L83.2902 111.982L83.9686 110.961ZM90.5082 117.014C91.1237 117.296 91.8517 117.026 92.1343 116.411C92.4168 115.795 92.1469 115.067 91.5314 114.785L91.0198 115.899L90.5082 117.014ZM103.394 120.23C102.778 119.947 102.05 120.217 101.767 120.833C101.485 121.448 101.755 122.176 102.37 122.459L102.882 121.344L103.394 120.23ZM110.278 126.089C110.894 126.371 111.622 126.101 111.905 125.486C112.187 124.87 111.917 124.142 111.302 123.86L110.79 124.974L110.278 126.089ZM123.164 129.305C122.548 129.022 121.82 129.292 121.538 129.908C121.255 130.523 121.525 131.251 122.141 131.534L122.652 130.419L123.164 129.305ZM130.049 135.164C130.664 135.446 131.392 135.177 131.675 134.561C131.957 133.945 131.687 133.217 131.072 132.935L130.56 134.049L130.049 135.164ZM142.934 138.38C142.318 138.097 141.59 138.367 141.308 138.983C141.025 139.598 141.295 140.326 141.911 140.609L142.422 139.494L142.934 138.38ZM1.625 2L0.94762 3.02226L5.08708 5.7652L5.76446 4.74294L6.44184 3.72068L2.30238 0.977743L1.625 2ZM18.1828 12.9718L17.5055 13.994L25.7844 19.4799L26.4618 18.4576L27.1391 17.4354L18.8602 11.9495L18.1828 12.9718ZM38.8802 26.6865L38.2028 27.7087L46.4817 33.1946L47.1591 32.1723L47.8365 31.1501L39.5575 25.6642L38.8802 26.6865ZM59.5775 40.4012L58.9001 41.4234L63.0395 44.1664L63.7169 43.1441L64.3943 42.1218L60.2548 39.3789L59.5775 40.4012ZM63.7169 43.1441L63.0395 44.1664C64.0889 44.8617 65.0734 45.6208 65.991 46.4356L66.8052 45.5186L67.6194 44.6015C66.616 43.7106 65.5401 42.8811 64.3943 42.1218L63.7169 43.1441ZM73.6574 54.8868L72.537 55.3854C73.5482 57.6573 74.2338 60.0632 74.5722 62.5268L75.7871 62.3599L77.002 62.193C76.6322 59.5004 75.8829 56.8712 74.7777 54.3882L73.6574 54.8868ZM74.903 73.9329L73.7277 73.5829C73.3774 74.7589 72.941 75.9231 72.4159 77.0671L73.5304 77.5787L74.6449 78.0902C75.2183 76.8411 75.6953 75.5689 76.0783 74.2829L74.903 73.9329ZM73.5304 77.5787L72.4159 77.0671C71.7777 78.4572 71.2596 79.8726 70.8572 81.3015L72.0377 81.6338L73.2181 81.9662C73.586 80.6596 74.0601 79.3641 74.6449 78.0902L73.5304 77.5787ZM71.5561 94.4789L70.354 94.7211C70.9495 97.6774 72.0058 100.526 73.4815 103.156L74.551 102.556L75.6204 101.956C74.27 99.5494 73.3033 96.942 72.7583 94.2367L71.5561 94.4789ZM83.2902 111.982L82.6118 113.004C83.8483 113.825 85.164 114.561 86.5541 115.199L87.0657 114.084L87.5773 112.97C86.3035 112.385 85.0993 111.712 83.9686 110.961L83.2902 111.982ZM87.0657 114.084L86.5541 115.199L90.5082 117.014L91.0198 115.899L91.5314 114.785L87.5773 112.97L87.0657 114.084ZM102.882 121.344L102.37 122.459L110.278 126.089L110.79 124.974L111.302 123.86L103.394 120.23L102.882 121.344ZM122.652 130.419L122.141 131.534L130.049 135.164L130.56 134.049L131.072 132.935L123.164 129.305L122.652 130.419ZM142.422 139.494L141.911 140.609L145.865 142.424L146.376 141.309L146.888 140.195L142.934 138.38L142.422 139.494Z" fill="#A3A3A3"/>
</svg>
